<mxfile host="app.diagrams.net" modified="2024-06-11T15:26:05.024Z" agent="Mozilla/5.0 (Windows NT 10.0; Win64; x64; rv:126.0) Gecko/20100101 Firefox/126.0" etag="63Fv9LazthKONHxvAIEP" version="24.5.2" type="github">
  <diagram name="Page-1" id="W2ijGfNVY5RY6CdKTio8">
    <mxGraphModel dx="1050" dy="530" grid="1" gridSize="10" guides="1" tooltips="1" connect="1" arrows="1" fold="1" page="1" pageScale="1" pageWidth="850" pageHeight="1100" math="0" shadow="0">
      <root>
        <mxCell id="0" />
        <mxCell id="1" parent="0" />
        <mxCell id="TD2LkPMqp8vX47pTRXvW-1" value="k8s node 1" style="rounded=0;whiteSpace=wrap;html=1;" vertex="1" parent="1">
          <mxGeometry x="720" y="60" width="120" height="60" as="geometry" />
        </mxCell>
        <mxCell id="TD2LkPMqp8vX47pTRXvW-2" value="k8s node 2" style="rounded=0;whiteSpace=wrap;html=1;" vertex="1" parent="1">
          <mxGeometry x="720" y="320" width="120" height="60" as="geometry" />
        </mxCell>
        <mxCell id="TD2LkPMqp8vX47pTRXvW-6" style="edgeStyle=orthogonalEdgeStyle;rounded=0;orthogonalLoop=1;jettySize=auto;html=1;exitX=1;exitY=0.25;exitDx=0;exitDy=0;entryX=0.5;entryY=1;entryDx=0;entryDy=0;" edge="1" parent="1" source="TD2LkPMqp8vX47pTRXvW-4" target="TD2LkPMqp8vX47pTRXvW-1">
          <mxGeometry relative="1" as="geometry" />
        </mxCell>
        <mxCell id="TD2LkPMqp8vX47pTRXvW-7" style="edgeStyle=orthogonalEdgeStyle;rounded=0;orthogonalLoop=1;jettySize=auto;html=1;exitX=1;exitY=0.5;exitDx=0;exitDy=0;entryX=0.5;entryY=0;entryDx=0;entryDy=0;" edge="1" parent="1" source="TD2LkPMqp8vX47pTRXvW-4" target="TD2LkPMqp8vX47pTRXvW-2">
          <mxGeometry relative="1" as="geometry" />
        </mxCell>
        <mxCell id="TD2LkPMqp8vX47pTRXvW-20" style="edgeStyle=orthogonalEdgeStyle;rounded=0;orthogonalLoop=1;jettySize=auto;html=1;exitX=0.5;exitY=1;exitDx=0;exitDy=0;" edge="1" parent="1" source="TD2LkPMqp8vX47pTRXvW-4" target="TD2LkPMqp8vX47pTRXvW-19">
          <mxGeometry relative="1" as="geometry" />
        </mxCell>
        <mxCell id="TD2LkPMqp8vX47pTRXvW-4" value="&lt;div&gt;docker&lt;br&gt;&lt;/div&gt;&lt;div&gt;k8s master or EKS&lt;br&gt;&lt;/div&gt;&lt;div&gt;&lt;br&gt;&lt;/div&gt;&lt;div&gt;&lt;br&gt;&lt;/div&gt;" style="rounded=0;whiteSpace=wrap;html=1;" vertex="1" parent="1">
          <mxGeometry x="560" y="200" width="160" height="60" as="geometry" />
        </mxCell>
        <mxCell id="TD2LkPMqp8vX47pTRXvW-10" style="edgeStyle=orthogonalEdgeStyle;rounded=0;orthogonalLoop=1;jettySize=auto;html=1;" edge="1" parent="1" source="TD2LkPMqp8vX47pTRXvW-8" target="TD2LkPMqp8vX47pTRXvW-4">
          <mxGeometry relative="1" as="geometry" />
        </mxCell>
        <mxCell id="TD2LkPMqp8vX47pTRXvW-8" value="git-Jenkins-maven" style="rounded=0;whiteSpace=wrap;html=1;" vertex="1" parent="1">
          <mxGeometry x="140" y="200" width="380" height="60" as="geometry" />
        </mxCell>
        <mxCell id="TD2LkPMqp8vX47pTRXvW-11" value="-terraform-ansible" style="rounded=0;whiteSpace=wrap;html=1;" vertex="1" parent="1">
          <mxGeometry x="10" y="440" width="120" height="60" as="geometry" />
        </mxCell>
        <mxCell id="TD2LkPMqp8vX47pTRXvW-12" value="sonarqube" style="rounded=0;whiteSpace=wrap;html=1;" vertex="1" parent="1">
          <mxGeometry x="280" y="330" width="120" height="60" as="geometry" />
        </mxCell>
        <mxCell id="TD2LkPMqp8vX47pTRXvW-13" value="Jfrog" style="rounded=0;whiteSpace=wrap;html=1;" vertex="1" parent="1">
          <mxGeometry x="280" y="70" width="120" height="60" as="geometry" />
        </mxCell>
        <mxCell id="TD2LkPMqp8vX47pTRXvW-14" style="edgeStyle=orthogonalEdgeStyle;rounded=0;orthogonalLoop=1;jettySize=auto;html=1;exitX=0.5;exitY=0;exitDx=0;exitDy=0;entryX=0.417;entryY=1.017;entryDx=0;entryDy=0;entryPerimeter=0;" edge="1" parent="1" source="TD2LkPMqp8vX47pTRXvW-8" target="TD2LkPMqp8vX47pTRXvW-13">
          <mxGeometry relative="1" as="geometry" />
        </mxCell>
        <mxCell id="TD2LkPMqp8vX47pTRXvW-18" style="edgeStyle=orthogonalEdgeStyle;rounded=0;orthogonalLoop=1;jettySize=auto;html=1;exitX=0.5;exitY=1;exitDx=0;exitDy=0;entryX=0.425;entryY=0.033;entryDx=0;entryDy=0;entryPerimeter=0;" edge="1" parent="1" source="TD2LkPMqp8vX47pTRXvW-8" target="TD2LkPMqp8vX47pTRXvW-12">
          <mxGeometry relative="1" as="geometry" />
        </mxCell>
        <mxCell id="TD2LkPMqp8vX47pTRXvW-19" value="prometheus- grafana" style="rounded=0;whiteSpace=wrap;html=1;" vertex="1" parent="1">
          <mxGeometry x="560" y="340" width="120" height="60" as="geometry" />
        </mxCell>
      </root>
    </mxGraphModel>
  </diagram>
</mxfile>
